<?xml version="1.0" encoding="UTF-8" standalone="no"?>
<!-- Created with Inkscape (http://www.inkscape.org/) -->

<svg
   version="1.1"
   id="svg1"
   width="371.18668"
   height="413.39999"
   viewBox="0 0 371.18668 413.39999"
   xmlns="http://www.w3.org/2000/svg"
   xmlns:svg="http://www.w3.org/2000/svg">
  <defs
     id="defs1" />
  <g
     id="g1">
    <path
       id="path1"
       d="m 1528.9,1362.54 -19,13 -85,-115 13,-13 91,115"
       style="fill:#4a4748;fill-opacity:1;fill-rule:nonzero;stroke:none"
       transform="matrix(0.13333333,0,0,-0.13333333,0,413.4)" />
    <path
       id="path2"
       d="m 609.902,696.543 c -17.004,-2 -34,-5 -51,-9.004 -46.004,-3.992 -90,-7.996 -133,-13.992 -3.004,-1.008 -7,-1.008 -11,-1.008 -239,-30 -373.9997,-87.996 -405.99966,-172.996 C -22.0938,415.539 27.9063,309.543 157.898,182.539 288.902,54.543 592.898,-6.45313 1072.9,0.539063 1551.91,6.54297 1978.9,74.543 2356.91,206.543 c 256.99,90 398.99,165.996 426.99,228 v 44.004 c -5,10.996 -16.99,22.996 -35,33.992 -115,72.004 -270,122.004 -465,150 -24,4.004 -50,7.004 -76,11.008 -15.99,1.992 -34,3.992 -50.99,5.996 -184.01,45 -418.01,72 -703.01,80 -191,5 -386.99,-5 -589.998,-27.004 V 603.547 h -254 v 92.996"
       style="fill:#231f20;fill-opacity:1;fill-rule:nonzero;stroke:none"
       transform="matrix(0.13333333,0,0,-0.13333333,0,413.4)" />
    <path
       id="path3"
       d="m 863.902,732.539 v 335.001 h -254 V 603.547 h 254 z m -10,323.001 v -68.001 h -233 v 68.001 z m -14,-190.001 c 0,-0.996 1,-0.996 2.004,-0.996 2.996,-3 3.996,-7.004 3.996,-10.996 0,-4.004 -1,-7.004 -3.996,-9.004 -3.004,-3 -6.004,-5 -9.008,-5 -2.996,0 -3.996,0 -5,0.996 -1.996,1.004 -3.996,2 -5.992,4.004 -2.004,2 -4.008,5 -4.008,9.004 0,3.992 2.004,7.996 4.008,10.996 1.996,2 5,2.996 7.996,2.996 0,0 1,0 2.996,0 0,0 2.004,0 3.004,0 1.996,0 1.996,-0.996 4,-2 z M 852.898,664.543 V 647.539 H 619.902 v 17.004 h 232.996"
       style="fill:#231f20;fill-opacity:1;fill-rule:nonzero;stroke:none"
       transform="matrix(0.13333333,0,0,-0.13333333,0,413.4)" />
    <path
       id="path4"
       d="m 853.902,987.539 v 68.001 h -233 v -68.001 h 233"
       style="fill:#ffffff;fill-opacity:1;fill-rule:nonzero;stroke:none"
       transform="matrix(0.13333333,0,0,-0.13333333,0,413.4)" />
    <path
       id="path5"
       d="m 839.902,899.543 h 14 v 67 h -233 v -67 h 186.004 32.996"
       style="fill:#ffffff;fill-opacity:1;fill-rule:nonzero;stroke:none"
       transform="matrix(0.13333333,0,0,-0.13333333,0,413.4)" />
    <path
       id="path6"
       d="m 841.906,864.543 c -1.004,0 -2.004,0 -2.004,0.996 -2.004,1.004 -2.004,2 -4,2 -1,0 -3.004,0 -3.004,0 -1.996,0 -2.996,0 -2.996,0 -2.996,0 -6,-0.996 -7.996,-2.996 -2.004,-3 -4.008,-7.004 -4.008,-10.996 0,-4.004 2.004,-7.004 4.008,-9.004 1.996,-2.004 3.996,-3 5.992,-4.004 1.004,-0.996 2.004,-0.996 5,-0.996 3.004,0 6.004,2 9.008,5 2.996,2 3.996,5 3.996,9.004 0,3.992 -1,7.996 -3.996,10.996"
       style="fill:#ffffff;fill-opacity:1;fill-rule:nonzero;stroke:none"
       transform="matrix(0.13333333,0,0,-0.13333333,0,413.4)" />
    <path
       id="path7"
       d="m 852.898,647.539 v 17.004 H 619.902 v -17.004 h 232.996"
       style="fill:#ffffff;fill-opacity:1;fill-rule:nonzero;stroke:none"
       transform="matrix(0.13333333,0,0,-0.13333333,0,413.4)" />
    <path
       id="path8"
       d="m 2041.91,1801.54 0.99,-1"
       style="fill:none;stroke:#4a4748;stroke-width:2.5;stroke-linecap:round;stroke-linejoin:round;stroke-miterlimit:4;stroke-dasharray:none;stroke-opacity:1"
       transform="matrix(0.13333333,0,0,-0.13333333,0,413.4)" />
    <path
       id="path9"
       d="m 1492.9,1835.54 v -53 l 206,-371 38.01,-9"
       style="fill:none;stroke:#231f20;stroke-width:2.5;stroke-linecap:round;stroke-linejoin:round;stroke-miterlimit:4;stroke-dasharray:none;stroke-opacity:1"
       transform="matrix(0.13333333,0,0,-0.13333333,0,413.4)" />
    <path
       id="path10"
       d="m 1528.9,1362.54 -91,-115 -13,13 85,115 19,-13"
       style="fill:#231f20;fill-opacity:1;fill-rule:nonzero;stroke:#4a4748;stroke-width:2.5;stroke-linecap:round;stroke-linejoin:round;stroke-miterlimit:4;stroke-dasharray:none;stroke-opacity:1"
       transform="matrix(0.13333333,0,0,-0.13333333,0,413.4)" />
    <path
       id="path11"
       d="m 2491.91,2356.54 c -21.01,19 -44.01,30 -71.01,34 2,5 7,8 16.01,9 10.99,-1 18.99,0 23.99,1 -5,12 -27,18 -63.99,20 -31.01,1 -43.01,11 -36.01,30 -8.99,3 -28,1 -56,-8 -21,-6 -32,-1 -34,18 -3.99,-4 -15,-8 -33,-13 -15,-3 -24,-9 -27,-17 -5,1 -7,5 -3.99,10 3.99,8 5.99,15 3.99,20 -3.99,-3 -25,-9 -62,-18 -26,-7 -41,-18 -48,-32 -10,1 -11,6 -2,15 8.01,7 15,12 22,15 -18.99,2 -43.99,-8 -76,-32 -17,-12 -42,-32 -74,-58 6.01,15 7,24 5,27 -3,2 -8,-4 -15,-17 -10,13 -8.99,32 2,56 10,22 23,37 38,44 -3,12 -10,13 -18,6 -12,-11 -20,-17 -22,-16 15,37 38,67 70,90 -3,7 -8,10 -13,7 -4,-1 -10,-4 -17,-7 10,20 30,37 60,50 -18,8 -20,18 -7,30 13.01,11 28.01,18 47,20 -8,15 -8.99,28 -3.99,35 3.99,9 15.99,14 33.99,15 -13.99,10 -33,11 -58,0 -17,-6 -35,-17 -52,-30 -5,1 -7,5 -3.99,10 3.99,8 5.99,15 3.99,20 -17,-21 -43.99,-44 -82,-70 -29,-26 -45,-63 -48,-110 -15,17 -28.99,2 -43.99,-43 -14.01,-45 -16.01,-81 -6.01,-107 -3,-4 -8,-6 -13.99,-6 -2.01,0 0,-8 3.99,-24 -20,7 -41,24 -62,52 -21.99,31 -41.99,50 -58,58 -10,-3 -12,-7 -3,-12 10,-8 15,-14 13,-18 -8,1 -30,12 -63,32 -29,13 -40.99,9 -37,-12 -5,1 -16,7 -33,17 -12,7 -25,11 -37,13 10,-14 2,-19 -23.99,-14 -15,2 -29.01,5 -40,5 -17.01,1 -29.01,1 -36.01,-1 10,-11 5,-16 -15,-17 -35,0 -57,-1 -65,-3 17,6 21.01,15 12,26 -9,11 -22,16 -42,14 10,20 3,37 -18.99,50 -15,8 -39.01,15 -71.01,20 1.01,5 5,7 12,8 8,0 14.01,1 18,2 -13,15 -36,25 -71,28 -10,2 -42.99,2 -99,2 -8,8 -3.99,13 12,15 19.01,2 28,3 28,5 1.01,3 -3,7 -13.99,12 -10,4 -16.01,7 -16.01,8 2,16 16.01,27 42,32 9.01,1 42,4 98,8 -8,15 -23.99,21 -50,20 14,10 37,13 68,10 29,-3 49,-10 62,-20 7,1 8,5 5,10 -3.99,5 -8,8 -15,10 26.01,3 47,5 66.01,7 5.99,1 11.99,1 16.99,1 34,2 58.01,-3 73.01,-15 0.99,0 1.99,-2 3.99,-3 3,15 12,25 25,26 12,2 23,-4 35,-16 3,12 -8,28 -32,45 -11,9 -21,15 -31.99,21 -12.01,6 -24.01,11 -36.01,14 1.01,3 3,6 7,8 6,0 10,1 13,2 -20,3 -45,12 -73.99,25 -5,3 -10,5 -15,8 -31.01,10 -61.01,6 -91.01,-13 2,15 -7,21 -25,15 -16,-4 -31,-12 -45,-25 14,27 4,33 -30,21 -33,-13 -53,-27 -60,-41 -6,1 -8,5 -3.99,10 3.99,5 7.99,8 13.99,10 -8,8 -22,6 -40,-7 -18.99,-13 -28,-28 -30,-43 -8,2 -8.99,10 -3.99,27 2.99,6 2.99,10 0.99,11 -0.99,0 -7,-2 -17,-8 10,28 13,58 10,90 -3,-1 -5,-2 -8.99,-6 -4.01,-3 -7.01,-4 -11.01,-4 10,22 10,40 0,57 -12,20 -15,44 -10,73 -5,5 -10,7 -13.99,5 -3.01,0 -9.01,-2 -16.01,-5 5,17 3,32 -3.994,45 -10,18 -15,29 -16.004,35 -3.996,-1 -8.004,-5 -8.004,-12 -0.992,-3 -0.992,-10 -1.996,-18 -13.996,19 -28.004,33 -41,43 -17.004,14 -37.004,23 -59,27 -1,-4 6.996,-13 21.996,-27 10,-8 6.004,-13 -11.996,-13 16.996,-19 26.004,-41 29,-67 2.996,-25 12.996,-46 31,-63 -1,-5 -3.996,-7 -10,-5 -8.004,5 -13.996,6 -20,5 5,-12 14,-29 25,-50 9,-20 14,-40 15,-60 -1,0 -8.004,8 -18.996,23 -7.004,10 -10,5 -11.004,-13 -26,43 -61,78 -103.996,107 -25,17 -67.004,41 -126.004,73 6.996,-12 9,-20 1.996,-23 -3.996,-3 -13.996,-3 -30,-2 -45.992,5 -76.996,3 -91.996,-5 -1,-6 11.996,-10 35,-12 19,-2 20,-8 5,-18 6.996,-7 16.996,-12 31.004,-15 0.992,0 12.996,-2 38.996,-5 -11,-18 -8.004,-30 9,-37 22.996,-5 40,-10 51,-13 -1,-5 -3.996,-8 -11,-9 -4,-1 -10,-1 -19,-1 11.996,-10 28,-20 49,-32 27.996,-15 45,-25 51,-28 -3.004,-11 -8.004,-13 -16,-8 -10,8 -17.996,11 -24,8 1.996,-10 9,-19 24,-27 15,-7 24,-15 26,-23 -23.004,13 -38.004,20 -41,23 -16,10 -27.996,18 -39,27 -8.996,-4 -8.996,-10 1.004,-17 12.996,-10 20,-18 18.996,-23 -38.004,25 -81,42 -130,50 6.996,-13 9,-21 8,-23 -1.004,-2 -6.004,-1 -14,3 -27.004,13 -45,20 -54,20 1.996,-5 5,-10 10,-15 6.004,-5 9,-10 10,-15 -25,9 -45,15 -58.004,18 -26.996,5 -47.996,2 -61.996,-8 13,-8 16.996,-14 13,-17 -4,-3 -14,-3 -29,-4 -44,-1 -69,-4 -74,-9 1.996,-6 6.996,-10 16.004,-10 h 23.996 c -12,-10 -32,-23 -60,-40 -23.004,-17 -40,-33 -50,-50 1.996,-8 9,-8 24,-1 12.004,7 20,14 26,21 6.996,-1 8,-7 4,-17 -5,-11 -2.004,-19 6,-23 14,10 24,18 31.996,23 12.004,7 25,13 38.004,17 5,-1 8,-5 9,-12 0,-3 0,-10 1,-18 9,5 24,12 45,20 21.996,8 36.996,14 45,20 9,-2 9,-5 -1,-13 -12.004,-9 -19,-15 -19,-17 8,-5 28,-3 58,5 33.996,8 61,10 82,5 -1,-7 -6,-11 -18.004,-12 -12.996,-1 -20,-4 -21.996,-8 13,-7 41.004,-10 81.996,-13 39.008,-2 65,-8 78.004,-17 -8.004,-5 -33.004,-5 -75,-2 -41,5 -70,2 -85,-8 19,-11 19,-18 -2,-22 -11.004,-1 -31.004,-5 -58,-8 -10,-22 -27,-41 -51,-59 -9,-7 -35,-24 -79,-51 9,-18 4,-33 -16,-48 -22.996,-18 -35,-35 -34,-52 4,1 9,4 15,10 5,6 10,9 15,10 -3.996,-15 -11,-37 -22,-63 -9,-25 -11.004,-51 -8,-77 10,15 18,26 23,31 8.004,9 21,9 37,-1 -1,15 3,30 11.004,43 11.996,20 17.996,32 18.996,37 5,-1 8,-5 9,-12 0,-3 0,-10 1,-18 11.996,7 21.996,20 30,35 5,10 11.996,24 20,45 5,-2 9,-7 9,-16 1,-6 1,-13 1,-24 9,15 23,32 44,52 24,22 39,38 46,48 11.996,-6 13,-13 4,-22 -12.996,-11 -17.004,-21 -14,-28 36.996,34 76.996,57 120,70 5,-1 8,-5 9,-12 0,-3 0,-10 1,-18 19,7 34,13 43,17 16,7 28.996,15 37,23 24,-30 14,-85 -28.996,-166 -7.004,-12 -27.004,-47 -63.004,-107 -21.004,-35 -36.996,-64 -49,-89 -2.996,-6 -7.004,-12 -9,-18 -66,-150 -130,-360 -190,-630 -37,-169 -62,-320 -73.004,-455 -11.996,-128.001 -12.996,-253.001 -2.996,-373.001 4,0 7.996,0 11,1.008 43,5.996 86.996,10 133,13.992 -9,48 -15,100 -19,155 -6,94.004 -5,213.001 1,358.001 l 13,165 c 5,66 23.996,152 57,260 44,-28 68,-45 71.004,-50 1.996,-7 7.996,-14 16.996,-23 8.996,-8 21,-27 35,-58 86,-137 173.996,-242 262,-317 82.998,-71 176.008,-125 277.998,-163 52,-17.997 105,-32.997 162,-42.997 84,-15 183,-6.004 296.01,28 120,42.997 208.99,70.997 265,82.997 l 98.99,37 c 20,13 35,19.01 42,20 8,1 12,2 13,2 1.01,1 3,1 9,3 32.01,-89 40,-194.001 26,-314.001 -2,-11.992 -3,-23 -3.99,-35 -1.01,-0.996 -1.01,-0.996 -1.01,-0.996 -7,-42.004 -13.99,-80 -23.99,-115 16.99,-2.004 35,-4.004 50.99,-5.996 26,-4.004 52,-7.004 76,-11.008 32,234.004 19,476.011 -36,727.001 -53,244 -142,478 -267,701 12,7 21.01,13 27,17 9.01,6 10,17 3,33 16.01,1 32,-3 47,-13 17,-11 31,-17 43,-17 1.01,6 0,11 -3,16 -5,6 -5.99,10 -7,14 63,-12 107,-39 130,-80 11.01,6 12,16 2,29 -14,14 -20,25 -22,31 45,-22 78,-55 100,-100 5,0 8,4 9,11 0,9 1,15 1,19 11.01,-6 20,-16 27,-29 4.01,-9 8,-23 13,-41 17,16 30,17 40,3 5,-6 12,-24 20,-53 16.01,12 27,16 33,10 1,-2 7,-15 17,-40 11.01,17 12,40 2,70 -7,24 -18,44 -32,60 26.01,-3 32,6 21.01,25 -11.01,18 -29.01,30 -51.01,35 18,10 17,25 -3,43 -20,18 -42,27 -67,27 1.01,3 3,6 7,7 6,1 10,2 13,3 -13,5 -25,12 -35,22 -12,11 -20,20 -25,25 -20,17 -50,25 -90,23 26.01,17 15,27 -32,31 -46,2 -79,-1 -98,-11 12,15 35,25 67,28 15,2 46,2 93,2 -8,14 -25,21 -50,20 17,12 43,15 77,9 13,-2 37,-8 73,-19 -1,7 -6,13 -15,20 -8.99,6 -13.99,13 -15,20 7,-5 22,-10 48,-18 22,-5 35,-13 42,-22 7,2 10,7 7,13 -4,7 -5.99,13 -7,17 38,-3 65,-17 80,-40 6.01,1 9,6 10,15 -1,12 0,20 0,25 8,-2 17,-8 29,-17 11,-9 21,-13 31,-13 -20,26 -37,44 -48.99,56 z m -906.01,-1214 c -18,10 -28.99,10 -32,0 -1.99,10 5,29 22,55 20,30 30,55 32,75 10,-10 12,-31 5,-65 -5.99,-33 -5,-55 5,-65 -2,-8.99 -13,-8.99 -32,0 z m 457,658 45,-140 c -53,32 -125.99,49 -220,52 l 174.01,89 z m -25,25 -344,-175 -11,22 -29,-19 -94,163 -47,19 143,-254 3,-8 h 1 l 97.01,-171 16.99,42 -85,149 25,17 -6.99,15 126.99,63 c 125,3 220,-25 285,-85 24,-74 44,-146 59,-215 4.01,-19 5,-30 4.01,-31 l 5,-106 h -1.01 l 2,-24 c -5,-2 -10,-5 -15,-8 -0.99,-2 -3,-2 -5,-3 -22,-14 -49,-31 -79,-49 -56,-33.99 -106,-57 -151,-70 -12,9 -15.99,27 -10,54 6,35 8,56 6,63 -20,-4 -33,-18 -41.99,-43 -15,-40 -23.01,-61 -24.01,-62 -34,0 -60,-0.99 -78,-0.99 -31,0.99 -59,5.99 -86,12.99 0,10 5,16 14,20 10,3 16,6 18,11 -8,20 -11,45 -11,78 2.01,37 3,65 3,82 0,64 -20.99,99 -64,105 -33,6 -74,-21 -121.99,-81 -34.01,-42 -54.01,-66 -59.01,-72 -23,-25 -45,-42 -64,-50 -19,8 -40,22 -63,43 -8,7 -17,14 -27,20 30,-3 54,-2 73.01,2 26.99,6 43.99,11 50.99,15 8,4.01 18,16 30,36 -150,22 -280,31 -390.99,26 -4.01,0 -9.01,1 -14.01,1 13,30 8,58 -15.99,83 -15,13 -25,23 -31.01,30 -10.998,12 -18.002,23 -20.998,35 -27.004,-7 -47.004,-16 -60,-29 -19,-17 -32.004,-43 -37.004,-76 -56.996,32 -103.996,83 -140.992,151 -13.004,27 -24.008,51 -35,74 -9.008,17 -17.004,33 -24.008,48 -0.992,0 -15,22 -45,63 32.004,91 72.004,203 123.004,334 10,28 19,55 26.996,78 17.004,45 30,81 40,108 27.004,69 59.008,124 93.004,164 1.996,-6 -1,-14 -7,-24 -1.996,-5 3.004,-7 17,-6 8,5 19,20 31.996,43 10,20 24.008,33 38.002,37 7,-11 17,-30 32,-59 14.01,-24 27,-38 38,-41 1.01,-24 1.01,-50 0,-80 2,-20 8,-33 20,-40 -11,-13 -15,-27 -11,-42 l 11,-38 c 11.01,21 19,36 25,46 9,16 17,24 25,24 10,39 11.01,79 4,121 -12,44 -19,77 -24,99 27,-5 51.01,-18 72,-39 5,-6 22,-26 48,-61 5,7 2,18 -6,31 -6,9 -4,16 6,19 14,-13 26.01,-33 35,-58 8,-25 20,-42 35,-52 1.01,8 1.01,15 2,18 0,7 4.01,11 8,12 6.01,-8 12,-27 21.01,-57 7.99,-22 16.99,-23 28.99,-3 10,-18 15,-29 17,-34 5,-14 5,-29 3,-46 19,12 31.01,10 36.01,-5 0.99,-5 1.99,-13 5,-24 0.99,-4 1.99,-9 3.99,-13 1.01,-3 3,-6 5,-8 2,2 2,6 3,8 7,21 8.01,48 2,80 -6,39 -8,63 -5,72 2,-7 5,-11 10,-14 5,-4 8,-3 10,4 -2,5 -5,12 -10,20 -5,8 -8,15 -10,20 7,-3 19,-1 35,7 h 1.01 c 10.99,6 20,4 23.99,-7 -6,-2 -10,-4 -13.99,-10 -4.01,-5 -3.01,-9 3.99,-10 20,15 57,21 110,20 3,-13 -3,-20 -18,-22 -15.99,-2 -24,-8 -22,-18 21.01,10 48,11 81.01,2 25.99,-7 50,-18 68.99,-32 -20,-7 -28,-13 -21,-18 4,-4 14,-11 31,-22 -38,3 -77,2 -118,-7 -45,-8 -52,-20 -22,-33 -27,-3 -48,-10 -65,-22 -22,-13 -27,-30 -15,-48 -30,0 -50,-10 -60,-30 6.01,-1 11.01,-2 13,-3 4,-1 7,-4 7,-7 -18.99,-7 -37,-19 -51,-38 -17,-20 -16,-34 1,-42 -13,-5 -23.99,-16 -32,-33 -4,-10 -10,-26 -18,-47 5,1 10,3 16.01,9 5,6 10,9 13.99,11 -2,-13 -5,-37 -11,-72 -2.99,-32 1,-55 11,-68 6.01,20 10,33 12,39 5,8 18,8 38,1 0,25 0,41 1.01,48 1.99,17 8.99,27 18.99,32 1.01,-5 3,-9 7,-13 3,-2 7,-5 13,-7 4,39 14,66 30,80 1.01,-8 2,-14 4,-17 3,-4 8,-5 16,-3 6.01,22 15,42 28,62 9,14 24,29 42,48 2,-4 -2,-14 -8,-29 -5.99,-11 -3,-18 8,-21 7,21 20,40 40,55 10,8 31.01,20 60,35 -8,-39 -13,-76 -16,-110 -2,-28 -2.99,-65 -4,-110 15,-3 27,-13 37,-33 10,-22 21,-34 33,-37 -3.99,25 -3,68 2,127 6,65 15,82 28,53 -3,35 4,61 21.01,77 21.99,23 35.99,40 38.99,53 21.01,-42 32,-64 36.01,-69 16.99,-24 31.99,-21 43.99,9 22,-59 51.01,-137 87,-235"
       style="fill:#231f20;fill-opacity:1;fill-rule:nonzero;stroke:none"
       transform="matrix(0.13333333,0,0,-0.13333333,0,413.4)" />
    <path
       id="path12"
       d="m 863.902,764.543 c 106,9.004 196.998,52 273.998,129.004 46,62.996 92,102.996 136,120.993"
       style="fill:none;stroke:#231f20;stroke-width:2.5;stroke-linecap:round;stroke-linejoin:round;stroke-miterlimit:4;stroke-dasharray:none;stroke-opacity:1"
       transform="matrix(0.13333333,0,0,-0.13333333,0,413.4)" />
    <path
       id="path13"
       d="m 863.902,764.543 v 302.997 h -254 V 603.547 h 254 v 128.992 32.004"
       style="fill:none;stroke:#231f20;stroke-width:2.5;stroke-linecap:round;stroke-linejoin:round;stroke-miterlimit:4;stroke-dasharray:none;stroke-opacity:1"
       transform="matrix(0.13333333,0,0,-0.13333333,0,413.4)" />
    <path
       id="path14"
       d="m 869.902,757.539 c 482.008,17.004 784.998,15 908.998,-5 124,-18.992 258.01,-5 402,42.004 0,0 0,0 1.01,0.996"
       style="fill:none;stroke:#231f20;stroke-width:2.5;stroke-linecap:round;stroke-linejoin:round;stroke-miterlimit:4;stroke-dasharray:none;stroke-opacity:1"
       transform="matrix(0.13333333,0,0,-0.13333333,0,413.4)" />
    <path
       id="path15"
       d="m 2283.9,662.539 c -24,4.004 -50,7.004 -76,11.008 -15.99,1.992 -34,3.992 -50.99,5.996"
       style="fill:none;stroke:#4a4748;stroke-width:2.5;stroke-linecap:round;stroke-linejoin:round;stroke-miterlimit:4;stroke-dasharray:none;stroke-opacity:1"
       transform="matrix(0.13333333,0,0,-0.13333333,0,413.4)" />
    <path
       id="path16"
       d="M 392.852,194.043 V 545 h 300.156 c 27.89,0 48.09,-5.371 60.594,-16.105 12.507,-10.743 18.761,-28.055 18.761,-51.961 V 394.59 c 0,-23.692 -6.254,-40.945 -18.761,-51.797 -12.504,-10.852 -32.704,-16.27 -60.594,-16.27 h -45.82 L 809.219,194.043 H 692.012 L 550.566,326.523 H 473.203 V 194.043 Z M 656.816,484.238 H 473.203 v -97.617 h 183.613 c 14.164,0 23.848,2.043 29.055,6.145 5.199,4.089 7.801,11.336 7.801,21.746 v 42.168 c 0,10.175 -2.602,17.316 -7.801,21.418 -5.207,4.09 -14.891,6.14 -29.055,6.14"
       style="fill:#ffffff;fill-opacity:1;fill-rule:nonzero;stroke:none"
       transform="matrix(0.13333333,0,0,-0.13333333,0,413.4)" />
    <path
       id="path17"
       d="M 900.527,194.043 V 481.582 H 1208.98 V 430.781 H 971.25 v -62.754 h 138.46 V 318.555 H 971.25 v -70.723 h 241.39 V 194.043 H 900.527"
       style="fill:#ffffff;fill-opacity:1;fill-rule:nonzero;stroke:none"
       transform="matrix(0.13333333,0,0,-0.13333333,0,413.4)" />
    <path
       id="path18"
       d="m 1270.08,194.043 170.66,287.539 h 67.4 l 173.32,-287.539 h -78.69 l -36.19,63.086 h -190.25 l -36.19,-63.086 z m 136.13,115.547 h 131.82 l -67.07,119.863 z"
       style="fill:#ffffff;fill-opacity:1;fill-rule:nonzero;stroke:none"
       transform="matrix(0.13333333,0,0,-0.13333333,0,413.4)" />
    <path
       id="path19"
       d="M 1778.75,194.043 V 545 h 300.16 c 27.89,0 48.08,-5.371 60.59,-16.105 12.51,-10.743 18.76,-28.055 18.76,-51.961 V 394.59 c 0,-23.692 -6.25,-40.945 -18.76,-51.797 -12.51,-10.852 -32.7,-16.27 -60.59,-16.27 h -45.82 l 162.03,-132.48 h -117.21 l -141.45,132.48 h -77.36 v -132.48 z m 263.96,290.195 H 1859.1 v -97.617 h 183.61 c 14.17,0 23.85,2.043 29.06,6.145 5.2,4.089 7.8,11.336 7.8,21.746 v 42.168 c 0,10.175 -2.6,17.316 -7.8,21.418 -5.21,4.09 -14.89,6.14 -29.06,6.14"
       style="fill:#ffffff;fill-opacity:1;fill-rule:nonzero;stroke:none"
       transform="matrix(0.13333333,0,0,-0.13333333,0,413.4)" />
  </g>
</svg>
